<svg width="16" height="16" viewBox="0 0 16 16" fill="none" xmlns="http://www.w3.org/2000/svg">
<path d="M15.1475 14.3521C15.2028 14.4036 15.2471 14.4657 15.2778 14.5347C15.3086 14.6037 15.3251 14.6782 15.3265 14.7537C15.3278 14.8293 15.3139 14.9043 15.2856 14.9743C15.2573 15.0444 15.2152 15.108 15.1618 15.1614C15.1084 15.2148 15.0447 15.2569 14.9747 15.2852C14.9047 15.3135 14.8296 15.3274 14.7541 15.3261C14.6786 15.3248 14.6041 15.3082 14.5351 15.2775C14.4661 15.2467 14.404 15.2024 14.3525 15.1471L8.00001 8.79558L1.64751 15.1471C1.54088 15.2465 1.39984 15.3006 1.25411 15.298C1.10839 15.2955 0.96935 15.2364 0.86629 15.1334C0.763231 15.0303 0.704197 14.8913 0.701626 14.7455C0.699055 14.5998 0.753147 14.4588 0.852507 14.3521L7.20407 7.99964L0.852507 1.64714C0.753147 1.54051 0.699055 1.39947 0.701626 1.25375C0.704197 1.10802 0.763231 0.968984 0.86629 0.865924C0.96935 0.762864 1.10839 0.703831 1.25411 0.70126C1.39984 0.698688 1.54088 0.752781 1.64751 0.852141L8.00001 7.2037L14.3525 0.852141C14.4591 0.752781 14.6002 0.698688 14.7459 0.70126C14.8916 0.703831 15.0307 0.762864 15.1337 0.865924C15.2368 0.968984 15.2958 1.10802 15.2984 1.25375C15.301 1.39947 15.2469 1.54051 15.1475 1.64714L8.79594 7.99964L15.1475 14.3521Z" fill="black"/>
</svg>
