<svg width="17" height="20" viewBox="0 0 17 20" fill="none" xmlns="http://www.w3.org/2000/svg">
<path d="M15.96 5.415L10.71 0.165C10.6046 0.0594807 10.4616 0.000131289 10.3125 0H1.3125C0.964403 0 0.630564 0.138281 0.384422 0.384422C0.138281 0.630564 0 0.964403 0 1.3125V17.8125C0 18.1606 0.138281 18.4944 0.384422 18.7406C0.630564 18.9867 0.964403 19.125 1.3125 19.125H14.8125C15.1606 19.125 15.4944 18.9867 15.7406 18.7406C15.9867 18.4944 16.125 18.1606 16.125 17.8125V5.8125C16.1249 5.66337 16.0655 5.52039 15.96 5.415ZM10.875 1.92L14.205 5.25H10.875V1.92ZM14.8125 18H1.3125C1.26277 18 1.21508 17.9802 1.17992 17.9451C1.14475 17.9099 1.125 17.8622 1.125 17.8125V1.3125C1.125 1.26277 1.14475 1.21508 1.17992 1.17992C1.21508 1.14475 1.26277 1.125 1.3125 1.125H9.75V5.8125C9.75 5.96168 9.80926 6.10476 9.91475 6.21025C10.0202 6.31574 10.1633 6.375 10.3125 6.375H15V17.8125C15 17.8622 14.9802 17.9099 14.9451 17.9451C14.9099 17.9802 14.8622 18 14.8125 18Z" fill="black"/>
</svg>
